<?xml version="1.0" encoding="UTF-8" standalone="no"?>
<!-- Created with Inkscape (http://www.inkscape.org/) -->
<svg id="svg2" xmlns:rdf="http://www.w3.org/1999/02/22-rdf-syntax-ns#" xmlns="http://www.w3.org/2000/svg" xml:space="preserve" height="400" viewBox="0 0 1800 400" width="1800" version="1.1" xmlns:cc="http://creativecommons.org/ns#" xmlns:dc="http://purl.org/dc/elements/1.1/"><metadata id="metadata8"><rdf:RDF><cc:Work rdf:about=""><dc:format>image/svg+xml</dc:format><dc:type rdf:resource="http://purl.org/dc/dcmitype/StillImage"/><dc:title/></cc:Work></rdf:RDF></metadata><defs id="defs6"><clipPath id="clipPath46" clipPathUnits="userSpaceOnUse"><path id="path48" d="m339.77 484.78 90.461 65.04 90.461-65.04 11.496 10.288-101.96 73.301-101.96-73.301 11.494-10.288z"/></clipPath><clipPath id="clipPath66" clipPathUnits="userSpaceOnUse"><path id="path68" d="m501.33 441.26 46.684-31.059 5.592 5.384-52.616 35.004"/></clipPath><clipPath id="clipPath86" clipPathUnits="userSpaceOnUse"><path id="path88" d="m431.78 492.77h25.406v-23.665h-25.406v23.665z"/></clipPath></defs><g id="g10" transform="matrix(1.25,0,0,-1.25,0,400)"><text id="text34" font-weight="bold" transform="scale(.93282 -1.072)" font-stretch="semi-expanded" line-height="125%" font-size="156.28px" y="-109.98057" x="469.35126" font-family="&apos;Myriad Pro&apos;" fill="#ffffff"><tspan id="tspan36" font-weight="bold" font-size="156.28px" font-stretch="normal" line-height="125%" y="-109.98057" x="469.35126" font-family="&apos;Helvetica LT Std&apos;" fill="#ffffff">Nardi Builders</tspan></text>
<g id="g42" transform="translate(-120.44 -262.77)" fill="#ff0006"><g id="g44" fill="#ff0006" clip-path="url(#clipPath46)"><g id="g50" fill="#ff0006"><g id="g52" fill="#ff0006"><path id="path60" fill="#ff0006" d="m339.77 484.78 90.461 65.04 90.461-65.04 11.496 10.288-101.96 73.301-101.96-73.301 11.494-10.288z"/></g></g></g></g><g id="g62" transform="translate(-120.44 -262.77)" fill="#ff0006"><g id="g64" fill="#ff0006" clip-path="url(#clipPath66)"><g id="g70" fill="#ff0006"><g id="g72" fill="#ff0006"><path id="path80" fill="#ff0006" d="m501.33 441.26 46.684-31.059 5.592 5.384-52.616 35.004"/></g></g></g></g><g id="g82" transform="translate(-120.44 -262.77)" fill="#ff0006"><g id="g84" fill="#ff0006" clip-path="url(#clipPath86)"><g id="g90" fill="#ff0006"><g id="g92" fill="#ff0006"><path id="path100" fill="#ff0006" d="m431.78 492.77h25.406v-23.665h-25.406v23.665z"/></g></g></g></g><g id="g102" transform="translate(-120.44 -262.77)" fill="#ff0006"><g id="g104" fill="#ff0006"><g id="g110" fill="#ff0006"><g id="g112" fill="#ff0006"><path id="path120" fill="#ff0006" d="m400.72 492.77h25.406v-23.665h-25.406v23.665z"/></g></g></g></g><g id="g122" transform="translate(-120.44 -262.77)" fill="#ff0006"><g id="g124" fill="#ff0006"><g id="g130" fill="#ff0006"><g id="g132" fill="#ff0006"><path id="path140" fill="#ff0006" d="m396.77 495.94h64.363v-30.001h-64.363v30.001zm11.708-138.71v79.874l53.031 25.596 46.791-25.596v51.224l-78.067 56.129-78.064-56.129v-131.45"/></g></g></g></g><g id="g142" transform="translate(-120.44 -262.77)" fill="#ff0006"><g id="g144" fill="#ff0006"><g id="g150" fill="#ff0006"><g id="g152" fill="#ff0006"><path id="path160" fill="#ff0006" d="m520.03 356.97h8.754v73.603h-8.754v-73.603z"/></g></g></g></g><g id="g162" transform="translate(-120.44 -262.77)" fill="#ff0006"><g id="g164" fill="#ff0006"><g id="g170" fill="#ff0006"><g id="g172" fill="#ff0006"><path id="path180" fill="#ff0006" d="m400.63 356.97h6.752v84.603h-6.752v-84.603z"/></g></g></g></g><g id="g182" transform="translate(-120.44 -262.77)" fill="#ff0006"><g id="g184" fill="#ff0006"><g id="g190" fill="#ff0006"><g id="g192" fill="#ff0006"><path id="path200" fill="#ff0006" d="m253.17 432.44 53.316 38.332 53.317-38.332 6.775 6.061-60.092 43.205-60.09-43.205 6.774-6.061z"/></g></g></g></g><g id="g202" transform="translate(-120.44 -262.77)" fill="#ff0006"><g id="g204" fill="#ff0006"><g id="g210" fill="#ff0006"><g id="g212" fill="#ff0006"><path id="path220" fill="#ff0006" d="m352.5 433.16v-76.287h-32.031v51.695h-29.418v-51.695h-30.574v76.287l46.011 33.08 46.012-33.08z"/></g></g></g></g><g id="g222" transform="translate(-120.44 -262.77)" fill="#ff0006"><g id="g224" fill="#ff0006"><g id="g230" fill="#ff0006"><g id="g232" fill="#ff0006"><path id="path240" fill="#ff0006" d="m493.27 358.01h-26.359v57.221h26.359v-57.221z"/></g></g></g></g><g id="g242" transform="translate(-120.44 -262.77)" fill="#ff0006"><g id="g244" fill="#ff0006"><g id="g250" fill="#ff0006"><g id="g252" fill="#ff0006"><path id="path260" fill="#ff0006" d="m461.67 358.01h-26.361v57.221h26.361v-57.221z"/></g></g></g></g><g id="g262" transform="translate(-120.44 -262.77)" fill="#ff0006"><g id="g264" fill="#ff0006"><g id="g270" fill="#ff0006"><g id="g272" fill="#ff0006"><path id="path280" fill="#ff0006" d="m274.44 457.53h13.166v22.167h-13.166v-22.167z"/></g></g></g></g><g id="g282" transform="translate(-120.44 -262.77)"><g id="g284"><g id="g290"><g id="g292"><path id="path300" d="m140.64 340.9c71.408 8.164 161.47 13.033 259.36 13.033 97.881 0 187.95-4.869 259.35-13.033-59.656 18.893-153.62 31.08-259.35 31.08s-199.7-12.187-259.36-31.08" fill="#ff0006"/></g></g></g></g></g></svg>
